Simulation
nRows=36
nColumns=15
endheader
time  TH_x TH_y TH_z SC_y  SC_z  SC_x  AC_y  AC_z  AC_x  GH_y  GH_z  GH_yy  EL_x  PS_y
1.5  0.000000  0.000000  0.000000  -28.482593850761482  3.3775402174863727  15.982956151974284  75.98738651918191  11.998581103631976  -1.642640648941435  21.651580753819243  55.820371815023954  -41.96596091001437  39.01382216509182  120.000000
1.53  0.000000  0.000000  0.000000  -28.453154787357033  3.3497231932982987  16.009423984999913  75.91083704488928  11.976918220707962  -1.730536044729058  21.738734216679443  55.70327074131064  -42.05901781935427  39.07267819989471  120.000000
1.56  0.000000  0.000000  0.000000  -28.41921959899674  3.3218864057670316  16.021175443504188  75.82825125038254  11.954043999591748  -1.8199535597454606  21.836738269258053  55.58252463196245  -42.159883438750846  39.12700633699769  120.000000
1.5899999999999999  0.000000  0.000000  0.000000  -28.38215649301604  3.2925794465355107  16.016299332376622  75.74688477461686  11.92738208836692  -1.9077872426245932  21.937510869570687  55.45758079087094  -42.26010832710778  39.17482515968502  120.000000
1.6199999999999999  0.000000  0.000000  0.000000  -28.343410321541015  3.2603732173161166  15.992966192593235  75.6720525481833  11.894540743157599  -1.9922775041825749  22.0348956379073  55.32535954298179  -42.35010944928633  39.214319493292415  120.000000
1.65  0.000000  0.000000  0.000000  -28.304350182404644  3.2239340919611656  15.949399521940167  75.60642456948567  11.85360696843162  -2.0731114208725208  22.125398874273763  55.18008574865188  -42.41973201113526  39.243965607885016  120.000000
1.68  0.000000  0.000000  0.000000  -28.265931979724748  3.182011427798102  15.883839929120917  75.55015120678326  11.803375347134201  -2.1514233726596608  22.20809542193697  55.01364555982921  -42.45911819753259  39.262574957308516  120.000000
1.71  0.000000  0.000000  0.000000  -28.228344090395424  3.1333960791735955  15.794652361329423  75.50117342479031  11.743491298926667  -2.229388222751557  22.284051377369718  54.8161400347848  -42.45927118969062  39.26936525358302  120.000000
1.74  0.000000  0.000000  0.000000  -28.190721621374408  3.0768920005159575  15.680468400112597  75.45581231459377  11.6745055093936  -2.309953305454236  22.355398992836015  54.57666729381135  -42.412545780059524  39.26402785688254  120.000000
1.77  0.000000  0.000000  0.000000  -28.151052046800512  3.011315028021258  15.540339067230398  75.40921193409443  11.597771111871035  -2.3964692618216206  22.424379685670367  54.284047489805424  -42.312636979244516  39.24685407610508  120.000000
1.7999999999999998  0.000000  0.000000  0.000000  -28.106250954864546  2.9355155212193216  15.373748492663976  75.35581189718134  11.515166956610102  -2.492501047054844  22.49251037755551  53.92760848693057  -42.15431006312538  39.218755924103554  120.000000
1.8299999999999998  0.000000  0.000000  0.000000  -28.052396986846198  2.8484336258689993  15.180457286355335  75.28969137668952  11.428666702303431  -2.6015970345383588  22.55999503228739  53.49795018829682  -41.93268550096984  39.18119860123014  120.000000
1.8599999999999999  0.000000  0.000000  0.000000  -27.985077333924192  2.749159065822914  14.960194773815385  75.2048786258506  11.33985339127185  -2.7270825354545014  22.625432513746073  52.98770306864432  -41.64240631496168  39.13607956392363  120.000000
1.89  0.000000  0.000000  0.000000  -27.899693008432646  2.6369859915973066  14.712279638656184  75.09561278567142  11.24944504936998  -2.8718519083227583  22.685695844476538  52.39228407755129  -41.27682908521349  39.08557041830741  120.000000
1.92  0.000000  0.000000  0.000000  -27.79173732783513  2.511469586386374  14.435351817026904  74.95649303148203  11.156968980804011  -3.038072921095012  22.736108396793668  51.71040528380854  -40.827458897785355  39.0319542154103  120.000000
1.95  0.000000  0.000000  0.000000  -27.65699963075536  2.3724673318610363  14.127251291843812  74.78265625044718  11.060619950193438  -3.2270279390091807  22.770754579299975  50.944347925400415  -40.28389082862147  38.9774730737703  120.000000
1.98  0.000000  0.000000  0.000000  -27.49181109273243  2.220208647112435  13.785264847830442  74.56973717720291  10.957449273942604  -3.438864681551775  22.78311851443807  50.09957540543642  -39.63420793197845  38.92420187084443  120.000000
2.01  0.000000  0.000000  0.000000  -27.293395242547152  2.0553559585171444  13.40658663726708  74.31395398322924  10.843780678135788  -3.6726680802064022  22.766732955492795  49.18413374192045  -38.86599320031229  38.87393200716439  120.000000
2.04  0.000000  0.000000  0.000000  -27.060268895676245  1.8790802647697356  12.989102047687918  74.01198666338455  10.715870333352353  -3.9264298487690716  22.715945279652363  48.20759014604254  -37.967569463254144  38.82801518278701  120.000000
2.07  0.000000  0.000000  0.000000  -26.79253685542851  1.69313979571584  12.532127193532306  73.66116339476855  10.570601429807379  -4.197309964295877  22.626539768195077  47.18016824082256  -36.92940686426335  38.78717226705744  120.000000
2.1  0.000000  0.000000  0.000000  -26.492241777881343  1.499951076857592  12.03712360722618  73.25963490997816  10.405872662931447  -4.481788063818788  22.49634733884018  46.11178181941455  -35.74535080915416  38.75186957256095  120.000000
2.13  0.000000  0.000000  0.000000  -26.163136482358937  1.3026120580428773  11.508072876685475  72.80648216619569  10.220445756439291  -4.776256371101071  22.325224792353453  45.01145505005239  -34.413680998154966  38.72234555722144  120.000000
2.16  0.000000  0.000000  0.000000  -25.810020658590986  1.1047966001833345  10.951463841011263  72.30127219997276  10.013897575572623  -5.077364327991254  22.11458384218219  43.886413534501806  -32.937542386370076  38.698593771086315  120.000000
2.19  0.000000  0.000000  0.000000  -25.437969345975947  0.910702312137871  10.375562267728968  71.74415721887077  9.786541497608827  -5.382265268321472  21.866310026179757  42.741814540659036  -31.32542645574034  38.680995437129575  120.000000
2.2199999999999998  0.000000  0.000000  0.000000  -25.05134456697226  0.7248502275403588  9.789999938399022  71.13600427789933  9.539266881304554  -5.688724173949798  21.58163720649075  41.58060650062754  -29.59082660581243  38.67089029640859  120.000000
2.25  0.000000  0.000000  0.000000  -24.652986423296543  0.5519812262154343  9.20531431458084  70.47869326094339  9.273191855538814  -5.995170191899032  21.259917057492533  40.40363980334356  -27.750844635499085  38.67065184581851  120.000000
2.28  0.000000  0.000000  0.000000  -24.2436687367999  0.39676796907064293  8.632256593950213  69.7750604846805  8.989339103232403  -6.300804376434382  20.897297895348473  39.21003930701899  -25.8235268749878  38.68324789335319  120.000000
2.31  0.000000  0.000000  0.000000  -23.82211376088255  0.2635292722363607  8.081386448801732  69.02908041248392  8.688029988086026  -6.605494105380893  20.48526235472247  37.99802053401616  -23.824765755977175  38.71128594954886  120.000000
2.34  0.000000  0.000000  0.000000  -23.385863235209886  0.15627588234234768  7.562627085530936  68.24544129024072  8.368714431130016  -6.9095262309892  20.010197985749087  36.76666689946202  -21.763710072666893  38.75591087529248  120.000000
2.37  0.000000  0.000000  0.000000  -22.931057334625443  0.07868731177314713  7.085298680433773  67.42875051690609  8.030612575387554  -7.21321607640334  19.453595356863215  35.51671534334832  -19.638851968663285  38.81570709299662  120.000000
2.4  0.000000  0.000000  0.000000  -22.452087202547947  0.03379478376129577  6.65784150540681  66.58357965186667  7.672656522500912  -7.515950806418372  18.79427255204866  34.25223332934665  -17.43527030029505  38.886326184019154  120.000000
2.4299999999999997  0.000000  0.000000  0.000000  -21.942064228987384  0.023558567572478855  6.286746776881892  65.71595560409502  7.294188437733123  -7.816634267860925  18.011144826461248  32.98081962620341  -15.125376759248876  38.96108948927538  120.000000
2.46  0.000000  0.000000  0.000000  -21.393372317910192  0.049242767291090186  5.97519249420329  64.83152320931052  6.895110837593427  -8.114386267540553  17.084993336061444  31.71221589973359  -12.673848473967759  39.03078756127114  120.000000
2.4899999999999998  0.000000  0.000000  0.000000  -20.801264267326122  0.11037047007813547  5.723076258579981  63.936004755295095  6.47667296870967  -8.409629924652764  16.00041632018921  30.45646865748739  -10.044975422223686  39.085477280455194  120.000000
2.52  0.000000  0.000000  0.000000  -20.1668437387505  0.20384337255476376  5.527056494554989  63.03676162052088  6.040967510547822  -8.70321707542219  14.747485072951074  29.22431157111694  -7.212296782477842  39.11693317381354  120.000000
2.55  0.000000  0.000000  0.000000  -19.498246452610818  0.32380439200925476  5.381709190522288  62.142936200789194  5.5917619697396885  -8.99513549419664  13.322623874076275  28.026994205891622  -4.165495861210091  39.120467217424526  120.000000
